<svg xmlns="http://www.w3.org/2000/svg" xmlns:svg="http://www.w3.org/2000/svg" id="svg2" width="492" height="484" version="1.1" viewBox="-5 -5 128 126"><metadata id="metadata105"/><g id="g4" transform="matrix(1.2776887,0,0,1.2776887,-19.635229,-19.332998)"><g id="g6"><polygon style="fill:#c5f2fb" id="polygon8" points="95.833 26.863 71.893 60.805 61.893 60.805"/><polygon style="fill:#c5f2fb" id="polygon10" points="27.952 26.864 61.893 50.805 61.893 60.805"/><polygon style="fill:#c5f2fb" id="polygon12" points="27.953 94.746 51.893 60.805 61.893 60.805"/><polygon style="fill:#c5f2fb" id="polygon14" points="95.834 94.745 61.893 70.805 61.893 60.805"/></g><g id="g16"><polygon style="fill:#4291e4" id="polygon18" points="27.952 26.863 51.893 60.805 61.893 60.805"/><polygon style="fill:#4291e4" id="polygon20" points="95.834 26.864 61.893 50.805 61.893 60.805"/><polygon style="fill:#4291e4" id="polygon22" points="95.833 94.746 71.893 60.805 61.893 60.805"/><polygon style="fill:#4291e4" id="polygon24" points="27.952 94.745 61.893 70.805 61.893 60.805"/></g><polygon style="fill:none;stroke:#000;stroke-width:.5;stroke-miterlimit:100" id="polygon26" stroke-miterlimit="100" points="71.893 60.805 95.834 94.746 61.893 70.805 27.952 94.746 51.893 60.805 27.952 26.863 61.893 50.805 95.834 26.863"/></g><g id="g28" transform="matrix(1.2776887,0,0,1.2776887,-19.635229,-19.332998)"><g id="g30"><polygon style="fill:#d4e5f7" id="polygon32" points="61.893 12.805 71.893 50.805 61.893 60.805"/><polygon style="fill:#d4e5f7" id="polygon34" points="51.893 50.805 13.893 60.805 61.893 60.805"/><polygon style="fill:#d4e5f7" id="polygon36" points="51.893 70.805 61.893 108.805 61.893 60.805"/><polygon style="fill:#d4e5f7" id="polygon38" points="71.893 70.805 109.893 60.805 61.893 60.805"/></g><g id="g40"><polygon style="fill:#0d0ba9" id="polygon42" points="61.893 12.805 51.893 50.805 61.893 60.805"/><polygon style="fill:#0d0ba9" id="polygon44" points="71.893 50.805 109.893 60.805 61.893 60.805"/><polygon style="fill:#0d0ba9" id="polygon46" points="71.893 70.805 61.893 108.805 61.893 60.805"/><polygon style="fill:#0d0ba9" id="polygon48" points="51.893 70.805 13.893 60.805 61.893 60.805"/></g><polygon style="fill:none;stroke:#000;stroke-width:.5" id="polygon50" points="71.893 70.805 61.893 108.805 51.893 70.805 13.894 60.805 51.893 50.805 61.893 12.805 71.893 50.805 109.893 60.805"/></g><g id="g52" transform="matrix(1.2776887,0,0,1.2776887,-19.635229,-19.332998)"><polyline style="fill:none;stroke:#000;stroke-width:.5" id="polyline54" points="61.893 60.805 61.893 12.805 61.893 108.805"/><line style="fill:none;stroke:#000;stroke-width:.5" id="line56" x1="109.893" x2="13.894" y1="60.805" y2="60.805"/><line style="fill:none;stroke:#000;stroke-width:.5" id="line58" x1="95.834" x2="27.952" y1="26.863" y2="94.746"/><polyline style="fill:none;stroke:#000;stroke-width:.5" id="polyline60" points="61.893 60.805 27.952 26.863 95.834 94.746"/></g></svg>